<svg width="18" height="20" viewBox="0 0 18 20" fill="none" xmlns="http://www.w3.org/2000/svg">
    <path
        d="M16.6267 10C16.6267 11.845 17.4895 12.9025 16.5917 14.5C15.693 16.0975 14.3694 15.859 12.8129 16.7806C11.2573 17.704 10.7965 19 9 19C7.20347 19 6.74361 17.7031 5.18708 16.7806C3.63143 15.859 2.30703 16.0975 1.40833 14.5C0.510498 12.9025 1.37329 11.845 1.37329 10C1.37329 8.155 0.510498 7.0975 1.40833 5.5C2.30703 3.9025 3.63056 4.141 5.18708 3.2194C6.74273 2.296 7.20347 1 9 1C10.7965 1 11.2573 2.2969 12.8129 3.2194C14.3686 4.141 15.693 3.9025 16.5908 5.5C17.4895 7.0975 16.6267 8.155 16.6267 10Z"
        stroke="#2F70B3" stroke-linecap="round" stroke-linejoin="round" />
</svg>