<svg width="18" height="20" viewBox="0 0 18 20" fill="none" xmlns="http://www.w3.org/2000/svg">
    <path
        d="M16.1878 4.8427C16.4971 5.01862 16.754 5.27378 16.9319 5.58193C17.1099 5.89008 17.2025 6.24009 17.2003 6.59593V13.1516C17.2003 13.8798 16.8016 14.5512 16.1581 14.9049L10.083 18.7479C9.78178 18.9133 9.44374 19 9.10014 19C8.75655 19 8.41851 18.9133 8.11733 18.7479L2.04222 14.9049C1.72736 14.7328 1.46452 14.4793 1.28118 14.1709C1.09783 13.8625 1.00072 13.5104 1 13.1516V6.59503C1 5.86692 1.39871 5.1964 2.04222 4.8427L8.11733 1.26064C8.42741 1.08967 8.77575 1 9.12984 1C9.48394 1 9.83227 1.08967 10.1424 1.26064L16.2175 4.8427H16.1878Z"
        stroke="#08131F" stroke-linecap="round" stroke-linejoin="round" />
    <path
        d="M6.40009 9.99961C6.40009 10.7157 6.68455 11.4025 7.19091 11.9088C7.69727 12.4152 8.38404 12.6997 9.10013 12.6997C9.81623 12.6997 10.503 12.4152 11.0094 11.9088C11.5157 11.4025 11.8002 10.7157 11.8002 9.99961C11.8002 9.28351 11.5157 8.59674 11.0094 8.09039C10.503 7.58403 9.81623 7.29956 9.10013 7.29956C8.38404 7.29956 7.69727 7.58403 7.19091 8.09039C6.68455 8.59674 6.40009 9.28351 6.40009 9.99961Z"
        stroke="#08131F" stroke-linecap="round" stroke-linejoin="round" />
</svg>
