<svg width="15" height="17" viewBox="0 0 15 17" fill="none" xmlns="http://www.w3.org/2000/svg">
    <path d="M6 10.1667H6.0075" stroke="#2F70B3" stroke-linecap="round" stroke-linejoin="round" />
    <path d="M9.33301 10.1667H9.34051" stroke="#2F70B3" stroke-linecap="round"
        stroke-linejoin="round" />
    <path
        d="M6 12.6667C6.48907 13.0073 7.07072 13.1898 7.66667 13.1898C8.26262 13.1898 8.84427 13.0073 9.33333 12.6667"
        stroke="#2F70B3" stroke-linecap="round" stroke-linejoin="round" />
    <path
        d="M1 3.5C1 4.88083 3.985 6 7.66667 6C11.3483 6 14.3333 4.88083 14.3333 3.5C14.3333 2.11917 11.3483 1 7.66667 1C3.985 1 1 2.11917 1 3.5Z"
        stroke="#2F70B3" stroke-linecap="round" stroke-linejoin="round" />
    <path d="M1 3.5V13.5C1 14.8808 3.985 16 7.66667 16C11.3483 16 14.3333 14.8808 14.3333 13.5V3.5"
        stroke="#2F70B3" stroke-linecap="round" stroke-linejoin="round" />
</svg>