<svg width="15" height="15" viewBox="0 0 15 15" fill="none" xmlns="http://www.w3.org/2000/svg">
<path d="M9.7377 7.50001C9.7377 8.73751 8.7377 9.73751 7.5002 9.73751C6.2627 9.73751 5.2627 8.73751 5.2627 7.50001C5.2627 6.26251 6.2627 5.26251 7.5002 5.26251C8.7377 5.26251 9.7377 6.26251 9.7377 7.50001Z" stroke="#666666" stroke-width="0.9375" stroke-linecap="round" stroke-linejoin="round"/>
<path d="M7.4999 12.6688C9.70615 12.6688 11.7624 11.3688 13.1937 9.11876C13.7562 8.23751 13.7562 6.75626 13.1937 5.87501C11.7624 3.62501 9.70615 2.32501 7.4999 2.32501C5.29365 2.32501 3.2374 3.62501 1.80615 5.87501C1.24365 6.75626 1.24365 8.23751 1.80615 9.11876C3.2374 11.3688 5.29365 12.6688 7.4999 12.6688Z" stroke="#666666" stroke-width="0.9375" stroke-linecap="round" stroke-linejoin="round"/>
</svg>
