<svg width="18" height="18" viewBox="0 0 18 18" fill="none" xmlns="http://www.w3.org/2000/svg">
    <path
        d="M2.77777 4.55556C2.77777 5.49855 3.15237 6.40292 3.81917 7.06971C4.48596 7.73651 5.39033 8.11111 6.33333 8.11111C7.27632 8.11111 8.18069 7.73651 8.84748 7.06971C9.51428 6.40292 9.88888 5.49855 9.88888 4.55556C9.88888 3.61256 9.51428 2.70819 8.84748 2.0414C8.18069 1.3746 7.27632 1 6.33333 1C5.39033 1 4.48596 1.3746 3.81917 2.0414C3.15237 2.70819 2.77777 3.61256 2.77777 4.55556Z"
        stroke="#08131F" stroke-linecap="round" stroke-linejoin="round" />
    <path
        d="M1 17.0001V15.2223C1 14.2793 1.3746 13.3749 2.0414 12.7081C2.70819 12.0414 3.61256 11.6667 4.55556 11.6667H8.11111C9.0541 11.6667 9.95847 12.0414 10.6253 12.7081C11.2921 13.3749 11.6667 14.2793 11.6667 15.2223V17.0001"
        stroke="#08131F" stroke-linecap="round" stroke-linejoin="round" />
    <path
        d="M12.5555 1.11548C13.3204 1.3113 13.9982 1.7561 14.4823 2.37975C14.9664 3.00341 15.2292 3.77044 15.2292 4.55992C15.2292 5.34941 14.9664 6.11644 14.4823 6.74009C13.9982 7.36374 13.3204 7.80854 12.5555 8.00437"
        stroke="#08131F" stroke-linecap="round" stroke-linejoin="round" />
    <path
        d="M17 16.9998V15.222C16.9955 14.4373 16.7315 13.6761 16.2491 13.0571C15.7668 12.438 15.0932 11.996 14.3333 11.7998"
        stroke="#08131F" stroke-linecap="round" stroke-linejoin="round" />
</svg>