<svg width="17" height="17" viewBox="0 0 17 17" fill="none" xmlns="http://www.w3.org/2000/svg">
    <path
        d="M12.25 2.875H15.0625C15.3111 2.875 15.5496 2.97377 15.7254 3.14959C15.9012 3.3254 16 3.56386 16 3.8125V14.125C16 14.6223 15.8025 15.0992 15.4508 15.4508C15.0992 15.8025 14.6223 16 14.125 16M14.125 16C13.6277 16 13.1508 15.8025 12.7992 15.4508C12.4475 15.0992 12.25 14.6223 12.25 14.125V1.9375C12.25 1.68886 12.1512 1.4504 11.9754 1.27459C11.7996 1.09877 11.5611 1 11.3125 1H1.9375C1.68886 1 1.4504 1.09877 1.27459 1.27459C1.09877 1.4504 1 1.68886 1 1.9375V13.1875C1 13.9334 1.29632 14.6488 1.82376 15.1762C2.35121 15.7037 3.06658 16 3.8125 16H14.125Z"
        stroke="#08131F" stroke-linecap="round" stroke-linejoin="round" />
    <path d="M4.75 4.75H8.5" stroke="#08131F" stroke-linecap="round" stroke-linejoin="round" />
    <path d="M4.75 8.5H8.5" stroke="#08131F" stroke-linecap="round" stroke-linejoin="round" />
    <path d="M4.75 12.25H8.5" stroke="#08131F" stroke-linecap="round" stroke-linejoin="round" />
</svg>