<svg width="16" height="16" viewBox="0 0 16 16" fill="none" xmlns="http://www.w3.org/2000/svg">
    <path
        d="M13.194 1.91309C14.6451 3.15195 15.6057 4.86889 15.9026 6.75406C16.1994 8.63923 15.8129 10.5685 14.8128 12.1936C13.8127 13.8187 12.2648 15.0327 10.4486 15.6165C8.63239 16.2003 6.66739 16.1153 4.90824 15.3771L4.72989 15.2987L0.923714 15.978L0.835738 15.9868C0.806435 15.9884 0.777065 15.9884 0.747762 15.9868L0.666184 15.9764L0.579807 15.9572L0.49583 15.9276L0.416651 15.89L0.342271 15.8435L0.331074 15.8347L0.321477 15.8291L0.252696 15.7707L0.191112 15.7067L0.137527 15.6363L0.0927388 15.5611L0.0655463 15.5051L0.0335549 15.4187L0.0111609 15.3163L0.00156361 15.2347C-0.000521202 15.2014 -0.000521202 15.168 0.00156361 15.1347L0.0111609 15.0547L0.0303558 14.9666L0.066346 14.869L1.21244 12.2255L1.20524 12.2143C0.2437 10.6614 -0.157737 8.82619 0.0676329 7.0135C0.293003 5.20081 1.13161 3.51985 2.4441 2.24993L2.61606 2.08751C4.05569 0.77493 5.92466 0.0330441 7.87223 0.00107766C9.81981 -0.0308888 11.7121 0.648462 13.194 1.91309ZM5.99834 4.38618C5.68017 4.38618 5.37503 4.51263 5.15004 4.7377C4.92506 4.96277 4.79867 5.26803 4.79867 5.58633V6.38642C4.79867 7.65961 5.30424 8.88066 6.20417 9.78094C7.10411 10.6812 8.32467 11.187 9.59737 11.187H10.3972C10.7153 11.187 11.0205 11.0605 11.2455 10.8355C11.4704 10.6104 11.5968 10.3051 11.5968 9.98685C11.5968 9.66855 11.4704 9.36329 11.2455 9.13822C11.0205 8.91315 10.7153 8.78671 10.3972 8.78671H9.59737L9.4822 8.79231C9.29916 8.80988 9.12261 8.86931 8.96618 8.966C8.80976 9.0627 8.67764 9.19407 8.58004 9.34998L8.54645 9.40918L8.52886 9.40358C8.07998 9.24393 7.6723 8.98624 7.33543 8.64924C6.99856 8.31224 6.74097 7.9044 6.58138 7.45535L6.57499 7.43695L6.63497 7.40414C6.80736 7.29617 6.94949 7.14611 7.04798 6.96808C7.14647 6.79006 7.1981 6.5899 7.19802 6.38642V5.58633C7.19802 5.26803 7.07162 4.96277 6.84664 4.7377C6.62166 4.51263 6.31652 4.38618 5.99834 4.38618Z"
        fill="white" />
</svg>