<svg width="22" height="16" viewBox="0 0 22 16" fill="none" xmlns="http://www.w3.org/2000/svg">
    <path
        d="M10.9997 0C15.2897 0 18.8627 2.429 21.6647 7.154L21.8847 7.533L21.9297 7.633L21.9597 7.716L21.9737 7.771L21.9877 7.853L21.9987 7.953V8.063L21.9847 8.174C21.9781 8.21113 21.9694 8.24786 21.9587 8.284L21.9197 8.392L21.8837 8.467L21.8677 8.497C19.1037 13.333 15.5677 15.877 11.3127 15.996L10.9997 16C6.60368 16 2.96268 13.451 0.131678 8.496C0.0453871 8.34494 0 8.17397 0 8C0 7.82603 0.0453871 7.65506 0.131678 7.504C2.96268 2.549 6.60368 0 10.9997 0ZM10.9997 5C10.204 5 9.44097 5.31607 8.87836 5.87868C8.31575 6.44129 7.99968 7.20435 7.99968 8C7.99968 8.79565 8.31575 9.55871 8.87836 10.1213C9.44097 10.6839 10.204 11 10.9997 11C11.7953 11 12.5584 10.6839 13.121 10.1213C13.6836 9.55871 13.9997 8.79565 13.9997 8C13.9997 7.20435 13.6836 6.44129 13.121 5.87868C12.5584 5.31607 11.7953 5 10.9997 5Z"
        fill="black" />
</svg>